<svg xmlns="http://www.w3.org/2000/svg" width="16" height="16" viewBox="0 0 16 16">
<path fill-rule="evenodd" clip-rule="evenodd" d="M6.391 4.415l2.505 9.669H7.063l-.572-2.39H4.036l-.559 2.39H1.644l2.505-9.67zM5.31 6.205l-.882 4.029h1.77zM11.327 14.1c-1.138 0-2.074-.545-2.074-1.74v-.023c0-1.32.953-1.863 2.385-1.863.609 0 1.099.036 1.528.183v-.102c0-.71-.44-1.105-1.297-1.105-.654 0-1.117.124-1.67.327L9.772 8.47c.666-.293 1.32-.412 2.346-.412.936 0 1.612.175 2.04.604.452.451.655 1.116.655 1.928v3.507h-1.658v-.654c-.417.462-.992.658-1.827.658zm.52-1.075c.8 0 1.341-.44 1.341-1.06v-.305a2.658 2.658 0 00-1.094-.225c-.733 0-1.184.293-1.184.834v.023c0 .462.384.733.936.733zM8.1 1.583l3 2.5-3 2.5z" fill="#AFB1B3"/>
</svg>