<svg xmlns="http://www.w3.org/2000/svg" width="32" height="32">
<path fill="#6e6e6e" d="M14.152 2.629v2.48h-2.318v2.16h2.318v3.76c0 .896.258 1.6.77 2.112.314.314.71.52 1.168.642l2.045-2.033h-.862c-.48 0-.72-.24-.72-.72V7.27h3.281V5.11h-3.281V2.628h-2.4zm-7.966 2.32c-1.131 0-1.99.236-2.577.705-.586.47-.88 1.13-.88 1.983 0 .81.25 1.414.751 1.808.502.395 1.302.662 2.4.801l1.024.127c.832.107 1.248.41 1.248.912 0 .608-.447.912-1.343.912h-.704c-.362 0-.661-.075-.896-.224-.224-.16-.336-.367-.336-.623h-2.4c0 .544.15 1.018.449 1.423.31.406.735.727 1.28.961.543.224 1.178.336 1.903.336h.704c1.205 0 2.117-.24 2.736-.72.619-.48.928-1.169.928-2.065 0-.821-.27-1.44-.815-1.855-.533-.416-1.355-.694-2.465-.832L6.09 8.453c-.363-.053-.63-.143-.8-.271-.16-.128-.241-.316-.241-.56 0-.268.09-.465.271-.593.182-.138.47-.207.866-.207h.607c.341 0 .614.069.816.207.214.128.32.299.32.512h2.401c0-.79-.32-1.417-.96-1.887-.64-.469-1.5-.705-2.577-.705h-.607zm20.736 0c-.694 0-1.242.167-1.654.49a5.38 5.38 0 01.923-.082c.843 0 1.743.086 2.633.977l1.088 1.088c-.114-.646-.353-1.181-.734-1.592-.534-.587-1.285-.88-2.256-.88zm-4.736.16v2.596l1.37-1.371c.29-.29.58-.473.87-.617v-.608h-2.24zM5.754 20.95c-.395 0-.72.134-.977.4-.256.267-.404.613-.447 1.04h-.098v-1.28H2.346v8.801H4.41v-6.45c0-.511.207-.767.623-.767.416 0 .625.256.625.768v6.45h1.373v-7.12l1.844-1.834c-.017 0-.031-.008-.049-.008-.416 0-.764.134-1.04.4-.278.267-.439.613-.481 1.04h-.08c-.075-.427-.245-.773-.512-1.04a1.274 1.274 0 00-.96-.4zm20.863 0c-.63 0-1.147.166-1.553.496-.405.331-.66.779-.767 1.344h-.047v-1.68h-.068l-2.252 2.24v6.561h2.4V24.47c0-.459.117-.81.352-1.055.245-.256.58-.385 1.007-.385.427 0 .758.13.993.385.245.245.367.596.367 1.055v5.441h2.4v-5.68c0-.992-.26-1.787-.783-2.384-.512-.598-1.195-.897-2.049-.897zm-6.767 4.469l-4.666 4.639c.56-.031 1.042-.16 1.433-.403.448-.288.735-.684.863-1.185h.05v1.441h2.32v-4.492z"/>
<path fill="#59a869" d="M25.784 16.695l-4.88-4.88L9.032 23.623v4.88h4.88zm4.067-4.066c.522-.523.522-1.918 0-2.44l-2.44-2.44c-.523-.523-1.918-.523-2.44 0l-2.44 2.44 4.88 4.88z" fill-rule="evenodd"/>
</svg>